HIERARCHY
ROOT newVegas:Hips
{
	OFFSET 0.000000 96.479958 0.000000
	CHANNELS 6 Xposition Yposition Zposition Xrotation Yrotation Zrotation
	JOINT newVegas:Pelvis
	{
		OFFSET 0.000000 0.000000 0.000000
		CHANNELS 3 Xrotation Yrotation Zrotation
		JOINT newVegas:LeftUpLeg
		{
			OFFSET 18.735201 -5.666702 -4.541200
			CHANNELS 3 Xrotation Yrotation Zrotation
			JOINT newVegas:LeftLeg
			{
				OFFSET -0.021200 -31.938179 0.493100
				CHANNELS 3 Xrotation Yrotation Zrotation
				JOINT newVegas:LeftFoot
				{
					OFFSET 0.021200 -31.938179 -4.336299
					CHANNELS 3 Xrotation Yrotation Zrotation
					JOINT newVegas:LeftToeBase
					{
						OFFSET 0.943001 -26.722000 15.023500
						CHANNELS 3 Xrotation Yrotation Zrotation
						End Site
						{
							OFFSET 0.000000 30.670183 0.000000
						}
					}
				}
				JOINT newVegas:Left_PantLeg
				{
					OFFSET 0.663870 -9.044666 -1.108900
					CHANNELS 3 Xrotation Yrotation Zrotation
					End Site
					{
						OFFSET 1.415995 20.635357 0.000000
					}
				}
			}
		}
		JOINT newVegas:RightUpLeg
		{
			OFFSET -18.735201 -5.666702 -4.541200
			CHANNELS 3 Xrotation Yrotation Zrotation
			JOINT newVegas:RightLeg
			{
				OFFSET 0.018946 -31.938133 0.493100
				CHANNELS 3 Xrotation Yrotation Zrotation
				JOINT newVegas:RightFoot
				{
					OFFSET -0.018946 -31.938126 -4.336299
					CHANNELS 3 Xrotation Yrotation Zrotation
					JOINT newVegas:RightToeBase
					{
						OFFSET -0.943001 -26.722004 15.023500
						CHANNELS 3 Xrotation Yrotation Zrotation
						End Site
						{
							OFFSET 0.000000 30.670187 0.000000
						}
					}
				}
				JOINT newVegas:Right_PantLeg
				{
					OFFSET -0.661674 -9.044716 -1.108900
					CHANNELS 3 Xrotation Yrotation Zrotation
					End Site
					{
						OFFSET -1.415958 20.635269 0.000000
					}
				}
			}
		}
	}
	JOINT newVegas:Spine
	{
		OFFSET 0.000000 10.199997 -0.299500
		CHANNELS 3 Xrotation Yrotation Zrotation
		JOINT newVegas:Spine1
		{
			OFFSET 0.000000 11.900002 -1.516600
			CHANNELS 3 Xrotation Yrotation Zrotation
			JOINT newVegas:Spine2
			{
				OFFSET 0.000000 13.600006 -2.842500
				CHANNELS 3 Xrotation Yrotation Zrotation
				JOINT newVegas:Neck
				{
					OFFSET 0.000000 9.624100 -2.890100
					CHANNELS 3 Xrotation Yrotation Zrotation
					JOINT newVegas:Head
					{
						OFFSET 0.000000 14.068802 -1.351900
						CHANNELS 3 Xrotation Yrotation Zrotation
						JOINT newVegas:Hair_Back
						{
							OFFSET 0.000000 3.231903 -17.524799
							CHANNELS 3 Xrotation Yrotation Zrotation
							End Site
							{
								OFFSET 0.000000 19.849884 0.000000
							}
						}
						JOINT newVegas:Hair_Front
						{
							OFFSET 0.000000 31.260406 4.573800
							CHANNELS 3 Xrotation Yrotation Zrotation
							JOINT newVegas:Hair_Front1
							{
								OFFSET 0.000000 2.284103 11.993300
								CHANNELS 3 Xrotation Yrotation Zrotation
								JOINT newVegas:Hair_Front2
								{
									OFFSET 0.000000 2.284103 11.993300
									CHANNELS 3 Xrotation Yrotation Zrotation
									End Site
									{
										OFFSET 0.000000 12.208862 0.000000
									}
								}
							}
						}
						JOINT newVegas:Jowel
						{
							OFFSET 0.000000 -7.458206 6.864100
							CHANNELS 3 Xrotation Yrotation Zrotation
							End Site
							{
								OFFSET 0.000000 19.849884 0.000000
							}
						}
					}
				}
				JOINT newVegas:LeftShoulder
				{
					OFFSET 15.263000 10.923401 -0.547700
					CHANNELS 3 Xrotation Yrotation Zrotation
					JOINT newVegas:LeftArm
					{
						OFFSET 25.438599 -2.830597 -13.032500
						CHANNELS 3 Xrotation Yrotation Zrotation
						JOINT newVegas:LeftForeArm
						{
							OFFSET 29.960503 0.000000 0.000000
							CHANNELS 3 Xrotation Yrotation Zrotation
							JOINT newVegas:LeftHand
							{
								OFFSET 27.849251 0.000000 0.000000
								CHANNELS 3 Xrotation Yrotation Zrotation
								JOINT newVegas:LeftHandThumb1
								{
									OFFSET 4.487587 -3.305161 6.305391
									CHANNELS 3 Xrotation Yrotation Zrotation
									JOINT newVegas:LeftHandThumb2
									{
										OFFSET 5.480453 -3.164139 3.164143
										CHANNELS 3 Xrotation Yrotation Zrotation
										JOINT newVegas:LeftHandThumb3
										{
											OFFSET 5.159721 -2.978973 2.978967
											CHANNELS 3 Xrotation Yrotation Zrotation
											End Site
											{
												OFFSET 2.494507 5.926697 1.738678
											}
										}
									}
								}
								JOINT newVegas:LeftHandIndex1
								{
									OFFSET 18.578728 -0.527832 5.208049
									CHANNELS 3 Xrotation Yrotation Zrotation
									JOINT newVegas:LeftHandIndex2
									{
										OFFSET 3.192009 0.000000 0.000000
										CHANNELS 3 Xrotation Yrotation Zrotation
										JOINT newVegas:LeftHandIndex3
										{
											OFFSET 3.835129 0.000000 0.000000
											CHANNELS 3 Xrotation Yrotation Zrotation
											End Site
											{
												OFFSET -0.034599 3.816971 0.371180
											}
										}
									}
								}
								JOINT newVegas:LeftHandMiddle1
								{
									OFFSET 18.476105 0.000000 0.000000
									CHANNELS 3 Xrotation Yrotation Zrotation
									JOINT newVegas:LeftHandMiddle2
									{
										OFFSET 3.324875 0.000000 0.000000
										CHANNELS 3 Xrotation Yrotation Zrotation
										JOINT newVegas:LeftHandMiddle3
										{
											OFFSET 4.596550 0.000000 0.000000
											CHANNELS 3 Xrotation Yrotation Zrotation
											End Site
											{
												OFFSET 0.057701 4.578827 0.399218
											}
										}
									}
								}
								JOINT newVegas:LeftHandRing1
								{
									OFFSET 17.732719 0.121887 -4.201567
									CHANNELS 3 Xrotation Yrotation Zrotation
									JOINT newVegas:LeftHandRing2
									{
										OFFSET 2.733170 0.000000 0.000000
										CHANNELS 3 Xrotation Yrotation Zrotation
										JOINT newVegas:LeftHandRing3
										{
											OFFSET 3.178268 0.000000 0.000000
											CHANNELS 3 Xrotation Yrotation Zrotation
											End Site
											{
												OFFSET 0.119102 3.170624 0.185394
											}
										}
									}
								}
								JOINT newVegas:LeftHandPinky1
								{
									OFFSET 15.989624 -0.606689 -7.535461
									CHANNELS 3 Xrotation Yrotation Zrotation
									JOINT newVegas:LeftHandPinky2
									{
										OFFSET 2.538986 0.000000 0.000000
										CHANNELS 3 Xrotation Yrotation Zrotation
										JOINT newVegas:LeftHandPinky3
										{
											OFFSET 2.593102 0.000000 0.000000
											CHANNELS 3 Xrotation Yrotation Zrotation
											End Site
											{
												OFFSET -0.150902 2.584198 0.152708
											}
										}
									}
								}
							}
							JOINT newVegas:Left_Sleeve
							{
								OFFSET 0.267448 -0.649796 0.577675
								CHANNELS 3 Xrotation Yrotation Zrotation
								End Site
								{
									OFFSET 0.000000 15.991241 0.000000
								}
							}
							JOINT newVegas:Left_CapeC
							{
								OFFSET 15.715958 -8.608795 -6.935905
								CHANNELS 3 Xrotation Yrotation Zrotation
								JOINT newVegas:Left_CapeC1
								{
									OFFSET 0.000000 -8.688499 0.000000
									CHANNELS 3 Xrotation Yrotation Zrotation
									End Site
									{
										OFFSET 0.000000 8.688499 0.000000
									}
								}
							}
						}
						JOINT newVegas:Left_CapeB
						{
							OFFSET 26.118385 -8.608795 -7.079235
							CHANNELS 3 Xrotation Yrotation Zrotation
							JOINT newVegas:Left_CapeB1
							{
								OFFSET 0.000000 -8.688499 0.000000
								CHANNELS 3 Xrotation Yrotation Zrotation
								End Site
								{
									OFFSET 0.000000 8.688499 0.000000
								}
							}
						}
						JOINT newVegas:Left_CapeA
						{
							OFFSET 5.115639 -8.608795 -10.395809
							CHANNELS 3 Xrotation Yrotation Zrotation
							JOINT newVegas:Left_CapeA1
							{
								OFFSET 0.000000 -8.688499 0.000000
								CHANNELS 3 Xrotation Yrotation Zrotation
								End Site
								{
									OFFSET 0.000000 8.688499 0.000000
								}
							}
						}
					}
				}
				JOINT newVegas:RightShoulder
				{
					OFFSET -15.263000 10.923401 -0.547700
					CHANNELS 3 Xrotation Yrotation Zrotation
					JOINT newVegas:RightArm
					{
						OFFSET -25.438599 -2.830597 -13.032500
						CHANNELS 3 Xrotation Yrotation Zrotation
						JOINT newVegas:RightForeArm
						{
							OFFSET -29.960503 0.000000 0.000000
							CHANNELS 3 Xrotation Yrotation Zrotation
							JOINT newVegas:RightHand
							{
								OFFSET -27.849251 0.000000 0.000000
								CHANNELS 3 Xrotation Yrotation Zrotation
								JOINT newVegas:RightHandThumb1
								{
									OFFSET -4.487587 -3.305161 6.305391
									CHANNELS 3 Xrotation Yrotation Zrotation
									JOINT newVegas:RightHandThumb2
									{
										OFFSET -5.480453 -3.164139 3.164143
										CHANNELS 3 Xrotation Yrotation Zrotation
										JOINT newVegas:RightHandThumb3
										{
											OFFSET -5.159721 -2.978973 2.978967
											CHANNELS 3 Xrotation Yrotation Zrotation
											End Site
											{
												OFFSET -2.494507 5.926697 1.738678
											}
										}
									}
								}
								JOINT newVegas:RightHandIndex1
								{
									OFFSET -18.578728 -0.527832 5.208049
									CHANNELS 3 Xrotation Yrotation Zrotation
									JOINT newVegas:RightHandIndex2
									{
										OFFSET -3.192009 0.000000 0.000000
										CHANNELS 3 Xrotation Yrotation Zrotation
										JOINT newVegas:RightHandIndex3
										{
											OFFSET -3.835129 0.000000 0.000000
											CHANNELS 3 Xrotation Yrotation Zrotation
											End Site
											{
												OFFSET 0.034599 3.816971 0.371180
											}
										}
									}
								}
								JOINT newVegas:RightHandMiddle1
								{
									OFFSET -18.476105 0.000000 0.000000
									CHANNELS 3 Xrotation Yrotation Zrotation
									JOINT newVegas:RightHandMiddle2
									{
										OFFSET -3.324875 0.000000 0.000000
										CHANNELS 3 Xrotation Yrotation Zrotation
										JOINT newVegas:RightHandMiddle3
										{
											OFFSET -4.596550 0.000000 0.000000
											CHANNELS 3 Xrotation Yrotation Zrotation
											End Site
											{
												OFFSET -0.057701 4.578827 0.399218
											}
										}
									}
								}
								JOINT newVegas:RightHandRing1
								{
									OFFSET -17.732719 0.121887 -4.201567
									CHANNELS 3 Xrotation Yrotation Zrotation
									JOINT newVegas:RightHandRing2
									{
										OFFSET -2.733170 0.000000 0.000000
										CHANNELS 3 Xrotation Yrotation Zrotation
										JOINT newVegas:RightHandRing3
										{
											OFFSET -3.178268 0.000000 0.000000
											CHANNELS 3 Xrotation Yrotation Zrotation
											End Site
											{
												OFFSET -0.119102 3.170624 0.185394
											}
										}
									}
								}
								JOINT newVegas:RightHandPinky1
								{
									OFFSET -15.989624 -0.606689 -7.535461
									CHANNELS 3 Xrotation Yrotation Zrotation
									JOINT newVegas:RightHandPinky2
									{
										OFFSET -2.538986 0.000000 0.000000
										CHANNELS 3 Xrotation Yrotation Zrotation
										JOINT newVegas:RightHandPinky3
										{
											OFFSET -2.593102 0.000000 0.000000
											CHANNELS 3 Xrotation Yrotation Zrotation
											End Site
											{
												OFFSET 0.150902 2.584198 0.152708
											}
										}
									}
								}
							}
							JOINT newVegas:Right_CapeC
							{
								OFFSET -15.715958 -8.608795 -6.935905
								CHANNELS 3 Xrotation Yrotation Zrotation
								JOINT newVegas:Right_CapeC1
								{
									OFFSET 0.000000 -8.688499 0.000000
									CHANNELS 3 Xrotation Yrotation Zrotation
									End Site
									{
										OFFSET 0.000000 8.688499 0.000000
									}
								}
							}
							JOINT newVegas:Right_Sleeve
							{
								OFFSET -0.267448 -0.649994 0.577675
								CHANNELS 3 Xrotation Yrotation Zrotation
								End Site
								{
									OFFSET 0.000000 15.991302 0.000000
								}
							}
						}
						JOINT newVegas:Right_CapeA
						{
							OFFSET -5.115540 -8.608795 -10.395824
							CHANNELS 3 Xrotation Yrotation Zrotation
							JOINT newVegas:Right_CapeA1
							{
								OFFSET 0.000000 -8.688499 0.000000
								CHANNELS 3 Xrotation Yrotation Zrotation
								End Site
								{
									OFFSET 0.000000 8.688499 0.000000
								}
							}
						}
						JOINT newVegas:Right_CapeB
						{
							OFFSET -26.118187 -8.608795 -7.079266
							CHANNELS 3 Xrotation Yrotation Zrotation
							JOINT newVegas:Right_CapeB1
							{
								OFFSET 0.000000 -8.688499 0.000000
								CHANNELS 3 Xrotation Yrotation Zrotation
								End Site
								{
									OFFSET 0.000000 8.688499 0.000000
								}
							}
						}
					}
				}
				JOINT newVegas:Left_Collar
				{
					OFFSET 18.625099 8.655502 8.828100
					CHANNELS 3 Xrotation Yrotation Zrotation
					JOINT newVegas:Left_Collar1
					{
						OFFSET 14.783401 10.540405 -1.259500
						CHANNELS 3 Xrotation Yrotation Zrotation
						End Site
						{
							OFFSET 0.000000 18.199875 0.000000
						}
					}
				}
				JOINT newVegas:Collar_Back
				{
					OFFSET 0.000000 15.630707 -20.132601
					CHANNELS 3 Xrotation Yrotation Zrotation
					End Site
					{
						OFFSET 0.000000 22.523010 0.000000
					}
				}
				JOINT newVegas:Left_Peck
				{
					OFFSET 17.239599 -5.132599 25.482599
					CHANNELS 3 Xrotation Yrotation Zrotation
					End Site
					{
						OFFSET 0.000000 22.523010 0.000000
					}
				}
				JOINT newVegas:Right_Peck
				{
					OFFSET -17.239599 -5.132202 25.482599
					CHANNELS 3 Xrotation Yrotation Zrotation
					End Site
					{
						OFFSET 0.000000 22.523010 0.000000
					}
				}
				JOINT newVegas:Right_Collar
				{
					OFFSET -18.625099 8.655792 8.828100
					CHANNELS 3 Xrotation Yrotation Zrotation
					JOINT newVegas:Right_Collar1
					{
						OFFSET -14.783401 10.539993 -1.259500
						CHANNELS 3 Xrotation Yrotation Zrotation
						End Site
						{
							OFFSET 0.000000 18.199631 0.000000
						}
					}
				}
			}
		}
		JOINT newVegas:Belly
		{
			OFFSET 0.000000 -6.540398 9.014299
			CHANNELS 3 Xrotation Yrotation Zrotation
			End Site
			{
				OFFSET 0.000000 11.566666 0.000000
			}
		}
	}
	JOINT newVegas:ElvisFacialAnim_Joint
	{
		OFFSET 1.000000 -95.330101 -8.825800
		CHANNELS 3 Xrotation Yrotation Zrotation
		End Site
		{
			OFFSET 0.000000 35.315800 0.000000
		}
	}
}
MOTION
Frames: 4
Frame Time: 0.033333
-46.982536 94.655312 -61.117989 175.037176 -184.158484 182.136652 -0.000000 -0.000000 -0.000000 4.713934 8.118114 -2.850221 15.422564 -0.005796 1.460820 -12.843856 -0.116036 0.224827 0.000000 0.000000 -0.000000 -0.000000 0.000001 0.000000 -19.623584 -13.463697 -18.621712 23.714429 -7.933552 -1.439318 4.536057 -1.398205 8.127733 0.000000 0.000000 -0.000000 0.000000 -0.000003 -0.000001 1.966275 0.926213 0.378934 2.625174 0.865785 1.397385 2.628358 0.864821 1.442252 2.356943 -0.119497 -0.179605 2.356941 -0.119499 -0.179606 0.000000 0.000000 -0.000000 2.357015 -0.119500 -0.179605 2.356944 -0.119492 -0.179607 0.000001 0.000001 -0.000000 0.000000 0.000000 -0.000000 -2.855211 -11.365958 -12.794187 -14.523497 29.386558 -61.907072 -0.000002 -16.950827 0.000025 46.499573 35.463589 -5.462668 -1.608208 -4.251943 -10.603821 19.432856 18.017573 16.017664 0.000003 -0.000002 -0.000003 0.483022 4.665986 -30.553929 6.685679 5.791444 -98.214814 0.000000 -0.000000 -0.000000 -0.494145 4.431102 -47.598622 6.701549 5.789125 -98.372298 0.000002 0.000001 -0.000003 -1.041023 4.541485 -54.026568 5.458687 5.837930 -86.148097 -0.000005 -0.000001 0.000002 3.897883 8.027684 -56.455144 3.839669 5.495581 -69.861436 -0.000001 -0.000003 -0.000001 0.000001 -0.000001 0.000001 0.000001 -0.000001 0.000001 0.000000 -0.000001 0.000001 0.000002 -0.000001 0.000001 0.000002 -0.000002 0.000001 0.000002 -0.000001 0.000001 0.000003 -0.000000 0.000001 -2.639125 15.313774 10.624704 -0.507008 -6.280353 66.348437 0.000004 32.254414 -0.000009 27.725367 -3.334249 6.646957 33.918088 5.641740 -6.252943 -16.162495 -36.483841 -7.595899 0.000000 -0.000000 -0.000001 -2.088218 2.585310 20.791434 0.631228 -2.343108 30.151556 -0.000002 0.000000 -0.000002 -0.889820 -1.458716 26.266339 1.589455 -3.505709 48.767059 -0.000003 0.000001 0.000001 -0.890285 -1.733377 28.488902 1.748190 -3.638449 51.314614 -0.000003 0.000009 -0.000001 0.565645 -4.418982 26.469380 0.677735 -2.421302 31.270177 0.000000 0.000005 -0.000000 0.000000 0.000001 -0.000000 0.000001 -0.000001 -0.000000 0.000000 0.000001 -0.000001 0.000000 0.000000 0.000001 0.000001 0.000000 0.000001 0.000000 0.000000 0.000001 0.000001 -0.000000 0.000001 -0.000000 -0.000000 -0.000000 -0.000000 -0.000000 -0.000000 -0.000000 -0.000000 -0.000000 -0.000000 -0.000000 -0.000000 -0.000000 -0.000000 -0.000000 -0.000000 -0.000000 -0.000000 -0.000000 -0.000000 -0.000000 -0.000000 0.000000 0.000000 -0.000000 -0.000000 -0.000000 
-45.886929 94.463074 -61.671131 175.178479 -184.716100 183.269357 -0.000000 0.000000 0.000000 5.023695 6.963476 -4.931577 13.746810 0.496261 1.387208 -11.615557 -0.188264 0.606938 0.000000 0.000001 -0.000000 0.000000 0.000002 -0.000001 -22.027601 -13.410303 -21.485562 25.552904 -6.797591 -1.722260 5.171062 -1.485499 9.165935 -0.000000 0.000001 -0.000000 -0.000000 0.000003 0.000000 2.027728 0.860665 -0.157643 2.701758 0.731944 0.844537 2.708385 0.732977 0.891292 2.191925 -0.093075 -0.409316 2.191928 -0.093074 -0.409316 -0.000000 -0.000000 -0.000000 2.191993 -0.093084 -0.409315 2.191923 -0.093068 -0.409318 0.000001 0.000000 -0.000000 -0.000000 -0.000000 -0.000000 -3.200461 -11.443224 -14.610686 -16.369021 28.347665 -60.486181 -0.000003 -15.016437 -0.000001 53.354405 33.459423 -11.912425 -0.585270 -3.006654 -10.139055 16.395049 15.930424 14.172544 0.000003 0.000003 -0.000001 1.473614 6.233701 -33.747862 6.681134 5.792091 -98.169872 -0.000009 0.000001 -0.000000 0.459301 5.412494 -49.862939 6.671511 5.793457 -98.074584 -0.000001 -0.000003 0.000001 -0.055601 5.403699 -56.188927 5.440158 5.836646 -85.965874 -0.000002 -0.000002 0.000000 5.080169 8.670651 -58.851471 3.824738 5.490115 -69.705455 0.000000 -0.000003 0.000001 -0.000002 -0.000003 0.000000 -0.000002 -0.000003 0.000000 -0.000003 -0.000002 0.000000 0.000001 -0.000002 0.000002 0.000001 -0.000003 0.000002 0.000001 -0.000002 0.000002 0.000002 -0.000001 0.000003 -2.754230 15.532851 10.970699 -2.114613 -4.282126 69.697730 -0.000001 29.333132 0.000000 28.097757 -5.481018 -1.878595 33.181117 4.167838 -6.521903 -15.321619 -36.629980 -6.803456 0.000002 -0.000001 0.000001 -2.187142 2.723697 21.155686 0.630842 -2.342430 30.142024 0.000000 -0.000001 -0.000001 -1.004488 -1.423729 27.757810 1.438203 -3.367394 46.244318 0.000002 0.000003 0.000002 -0.304976 -2.636843 26.044353 1.450811 -3.379398 46.458434 0.000002 0.000001 -0.000000 0.595195 -4.482264 25.788931 0.568387 -2.231468 28.576866 -0.000002 0.000001 0.000001 -0.000000 -0.000003 -0.000000 -0.000001 -0.000005 0.000002 -0.000000 -0.000003 -0.000000 -0.000002 0.000000 0.000000 -0.000002 0.000000 -0.000000 -0.000002 0.000000 0.000000 -0.000002 -0.000000 -0.000000 -0.000000 -0.000001 -0.000000 -0.000000 -0.000001 -0.000000 -0.000000 -0.000001 -0.000000 -0.000000 -0.000001 -0.000000 -0.000000 -0.000001 -0.000000 -0.000000 -0.000001 -0.000000 -0.000000 -0.000001 -0.000000 0.000000 -0.000000 0.000000 -0.000000 0.000000 0.000000 
-44.847000 94.283607 -62.249443 175.184804 -185.535996 184.411378 0.000001 0.000000 -0.000000 5.963235 5.901770 -7.046138 11.176049 0.668729 1.225148 -10.427733 -0.432547 1.690124 0.000000 -0.000000 0.000000 -0.000001 -0.000000 0.000001 -23.828853 -13.351547 -24.342851 26.981455 -5.989491 -1.962902 5.817042 -1.543725 10.580265 -0.000000 -0.000001 -0.000000 0.000000 0.000000 -0.000000 2.150125 0.659619 -0.765902 2.857992 0.418019 0.268468 2.866565 0.420375 0.317807 2.092885 -0.078080 -0.551319 2.092885 -0.078079 -0.551319 0.000001 0.000001 0.000000 2.093028 -0.078083 -0.551319 2.092811 -0.078069 -0.551322 0.000001 0.000000 -0.000000 0.000001 0.000001 0.000000 -3.553117 -11.689949 -16.386831 -17.730818 27.279497 -59.182974 -0.000003 -12.865676 0.000010 55.445512 31.241326 -15.979596 0.304533 -1.479733 -9.380858 12.703713 13.548840 11.612264 0.000001 0.000002 -0.000004 2.874375 7.970768 -37.648184 6.679928 5.792253 -98.157926 -0.000001 -0.000003 0.000004 1.681354 6.483071 -52.604058 6.642529 5.797468 -97.787620 0.000001 0.000000 -0.000001 1.202938 6.344544 -58.824970 5.422035 5.835357 -85.787579 -0.000000 -0.000001 -0.000001 6.548610 9.316863 -61.744036 3.809859 5.484612 -69.549849 0.000001 -0.000005 0.000002 0.000002 -0.000001 -0.000000 0.000002 -0.000001 -0.000000 0.000001 -0.000001 0.000000 0.000001 0.000000 -0.000001 0.000000 -0.000001 -0.000001 0.000001 0.000000 -0.000001 0.000001 0.000000 -0.000000 -2.880860 15.610278 11.459340 -5.425069 -5.176191 71.818954 0.000007 25.373647 -0.000025 28.343028 -5.094633 -6.714579 34.647647 6.260443 -5.933310 -16.461377 -36.241557 -8.094540 0.000002 -0.000003 -0.000003 -2.424761 3.031060 22.034602 0.622681 -2.328323 29.941610 -0.000000 -0.000001 -0.000001 -1.225445 -1.206560 29.211934 1.392682 -3.323278 45.464212 -0.000000 0.000003 0.000001 -0.407351 -2.242007 23.969463 1.259942 -3.187458 43.127102 0.000001 0.000002 0.000002 0.848612 -5.096233 23.334783 0.439448 -1.976624 25.065937 -0.000005 0.000000 -0.000003 -0.000001 0.000001 0.000001 0.000000 -0.000001 0.000000 -0.000001 0.000001 0.000000 -0.000001 -0.000001 0.000000 -0.000000 -0.000001 0.000000 -0.000001 -0.000001 0.000000 -0.000000 -0.000001 0.000000 -0.000000 0.000001 0.000000 -0.000000 0.000001 0.000000 -0.000000 0.000001 0.000000 -0.000000 0.000001 0.000000 -0.000000 0.000001 0.000000 -0.000000 0.000001 0.000000 -0.000000 0.000001 0.000000 0.000000 0.000000 0.000000 0.000001 0.000000 -0.000000 
-43.912121 94.124939 -62.841946 175.075999 -186.783599 185.180184 -0.000001 -0.000000 0.000001 6.504206 5.309618 -8.332840 9.460385 -0.136931 0.829380 -9.667578 -0.619978 2.842664 0.000000 0.000000 -0.000000 -0.000001 -0.000000 0.000000 -24.804245 -13.361552 -26.818152 27.813797 -5.944314 -1.799770 6.925595 -1.546239 12.100782 0.000001 0.000002 -0.000000 -0.000000 -0.000001 -0.000002 2.302576 0.317713 -1.334155 3.046002 -0.093190 -0.120967 3.055482 -0.090387 -0.069771 2.068386 -0.080728 -0.618569 2.068392 -0.080726 -0.618568 -0.000001 -0.000000 -0.000000 2.068454 -0.080728 -0.618569 2.068387 -0.080743 -0.618566 0.000000 0.000000 -0.000000 -0.000001 -0.000000 -0.000000 -3.937943 -12.012738 -18.287318 -18.020151 26.032323 -58.222916 -0.000005 -11.523623 -0.000036 54.763197 29.542061 -18.635044 0.545784 -0.190017 -8.318995 9.316598 11.494210 9.126874 0.000004 -0.000003 -0.000005 4.230252 9.292989 -41.126014 6.677250 5.792648 -98.131247 -0.000003 -0.000003 0.000003 2.837467 7.338994 -55.024287 6.614031 5.801279 -97.505602 0.000001 -0.000003 0.000005 2.377257 7.085342 -61.133950 5.404286 5.834031 -85.613122 0.000004 0.000001 0.000000 7.890913 9.779349 -64.299326 3.795462 5.479264 -69.399121 0.000002 -0.000002 -0.000001 0.000000 0.000000 0.000001 0.000000 0.000000 0.000001 -0.000001 0.000000 0.000001 0.000002 0.000000 -0.000000 0.000001 -0.000001 -0.000001 0.000002 0.000000 -0.000000 0.000002 -0.000000 0.000000 -3.003605 15.484968 12.029234 -8.215147 -6.871974 72.446471 0.000004 23.061516 -0.000005 28.366180 -3.521334 -3.786908 35.114358 6.753405 -5.808111 -17.154630 -35.705487 -8.753312 -0.000000 -0.000002 -0.000001 -2.503487 3.010673 22.644485 0.620208 -2.324032 29.880742 -0.000004 0.000002 0.000002 -1.379773 -1.199310 31.103114 1.395386 -3.325944 45.511145 0.000002 0.000002 -0.000003 -0.895422 -1.174576 24.221002 1.195871 -3.117739 41.961916 -0.000001 0.000001 -0.000000 0.668128 -4.710411 22.265119 0.351861 -1.777478 22.392674 -0.000002 0.000003 0.000001 0.000000 -0.000000 0.000000 0.000001 -0.000002 0.000001 0.000000 -0.000001 0.000000 0.000001 0.000000 -0.000000 0.000001 0.000001 -0.000000 0.000001 0.000000 -0.000000 0.000001 0.000001 -0.000000 0.000001 0.000000 0.000000 0.000001 0.000000 0.000000 0.000001 0.000000 0.000000 0.000001 0.000000 0.000000 0.000001 0.000000 0.000000 0.000001 0.000000 0.000000 0.000001 0.000000 0.000000 -0.000000 -0.000000 0.000000 -0.000001 -0.000000 0.000001 
